<?xml version="1.0" encoding="utf-8"?>
<!-- Generator: Adobe Illustrator 16.0.0, SVG Export Plug-In . SVG Version: 6.00 Build 0)  -->
<!DOCTYPE svg PUBLIC "-//W3C//DTD SVG 1.1//EN" "http://www.w3.org/Graphics/SVG/1.1/DTD/svg11.dtd">
<svg version="1.1" id="Layer_1" xmlns="http://www.w3.org/2000/svg" xmlns:xlink="http://www.w3.org/1999/xlink" x="0px" y="0px"
	 width="167.268px" height="92.9px" viewBox="0 0 167.268 92.9" enable-background="new 0 0 167.268 92.9" xml:space="preserve">
<g>
	<g>
		<path fill="#0261A3" d="M64.786,38.381c-0.646,0.302-1.25,0.431-1.812,0.431c-2.24,0-3.533-1.929-3.533-3.985
			c0-7.027,7.844-8.527,11.937-8.527c4.781,0,8.917,1.845,13.87-0.342c0.946,3.856-1.12,6.471-4.223,6.471
			c-1.724,0-4.094-1.157-6.29-2.143L72.324,41.51c2.066,0.214,3.792,0.771,5.558-0.086c1.035,1.328-0.13,3.515-2.368,3.515
			c-1.294,0-2.499-0.472-3.749-0.729l-2.713,12.685c-0.433,2.017-2.112,2.741-3.705,2.741c-0.991,0-1.811-0.213-2.283-0.557
			l6.851-30.168c-2.887,0.301-5.987,2.485-5.987,6.985C63.924,36.625,64.182,37.695,64.786,38.381z"/>
		<path fill="#0261A3" d="M85.938,42.324c1.726-3.472,3.575-4.673,5.56-4.673c2.065,0,3.146,1.63,3.146,3.386
			c0,1.93-1.206,4.028-3.447,4.028c-0.387,0-0.859-0.043-1.248-0.172c0.303-0.259,0.474-0.813,0.474-1.328
			c0-0.601-0.431-1.069-1.334-1.069c-1.422,0-3.446,1.928-5.646,11.826l-0.517,2.612c-0.432,1.974-2.067,2.698-3.619,2.698
			c-0.774,0-1.507-0.213-2.023-0.557l3.531-16.455c0.13-0.687-0.042-1.07-0.43-1.07c-0.217,0-0.475,0.171-0.862,0.515
			c-0.561-0.344-0.859-1.672,0-2.354c1.465-1.158,3.018-2.06,4.825-2.06c1.551,0,2.411,0.729,2.067,2.356L85.938,42.324z"/>
		<path fill="#0261A3" d="M98.733,52.736c0.433,2.313,2.025,3.171,4.007,3.171c3.103,0,7.065-2.188,8.917-4.628
			c1.119-0.215,1.553,0.687,1.076,1.457c-2.971,4.328-7.969,6.897-12.146,6.897c-2.845,0-5.342-1.155-6.549-3.729
			c-0.172,0.086-0.346,0.172-0.519,0.215c-1.679,0.43-3.229-0.813-2.929-2.484c0.99,0.13,1.853-0.086,2.757-0.473
			c-0.044-0.386-0.087-0.771-0.087-1.199c0-5.569,3.705-14.481,10.813-14.481c3.92,0,4.909,2.185,4.909,4.112
			C108.986,45.236,107.047,48.15,98.733,52.736z M98.604,50.893c4.181-2.612,7.021-5.612,7.021-8.397c0-0.983-0.518-1.67-1.249-1.67
			C100.112,40.824,98.733,47.895,98.604,50.893z"/>
		<path fill="#0261A3" d="M116.612,52.736c0.433,2.313,2.024,3.171,4.009,3.171c3.1,0,7.063-2.188,8.917-4.628
			c1.12-0.215,1.55,0.687,1.074,1.457c-2.973,4.328-7.97,6.897-12.146,6.897c-4.05,0-7.322-2.399-7.322-7.67
			c0-5.569,3.704-14.481,10.813-14.481c3.92,0,4.911,2.185,4.911,4.112C126.865,45.236,124.926,48.15,116.612,52.736z
			 M116.483,50.893c4.181-2.612,7.021-5.612,7.021-8.397c0-0.983-0.519-1.67-1.25-1.67C117.99,40.824,116.612,47.895,116.483,50.893
			z"/>
		<path fill="#0261A3" d="M137.031,40.354l-2.544,12.039c-0.472,2.187,0.09,3.129,0.949,3.129c0.776,0,1.769-0.515,2.413-2.058
			c0.817,0,1.291,0.431,1.291,1.156c0,3-3.531,5.014-5.945,5.014c-2.151,0-5.169-1.241-4.092-6.342l2.758-12.938h-2.151
			c-0.217-1.371,0.473-2.485,1.809-2.485h0.861l0.773-3.515c0.432-1.972,2.068-2.698,3.618-2.698c0.775,0,1.508,0.215,2.025,0.557
			l-1.206,5.656h3.144c0.218,1.371-0.474,2.485-1.808,2.485H137.031L137.031,40.354z"/>
		<g>
			<circle fill="#0261A3" cx="42.523" cy="39.905" r="0.558"/>
			<circle fill="#0261A3" cx="41.264" cy="38.547" r="0.559"/>
			<circle fill="#0261A3" cx="38.748" cy="35.83" r="0.559"/>
			<circle fill="#0261A3" cx="40.006" cy="37.189" r="0.559"/>
			<path fill="#0261A3" d="M37.345,25.783c-9.665,0-17.497,7.793-17.497,17.403c0,5.692,2.761,10.731,7.009,13.907l-2.749,8.044
				l7.709-5.447c1.739,0.576,3.596,0.899,5.528,0.899c9.662,0,17.496-7.793,17.496-17.403S47.007,25.783,37.345,25.783z
				 M46.781,43.701c-0.021-0.035-0.044-0.068-0.071-0.099c-0.209-0.228-0.563-0.24-0.79-0.033c-0.229,0.209-0.242,0.563-0.032,0.787
				c0.028,0.028,0.061,0.058,0.092,0.08L33.426,55.943c-0.322,0.298-0.824,0.274-1.121-0.045l-2.385-2.571
				c0.009-0.009,0.016-0.015,0.021-0.021c0.938-0.854,0.994-2.306,0.136-3.234c-0.86-0.929-2.317-0.985-3.252-0.133
				c-0.01,0.011-0.017,0.017-0.022,0.021l-2.384-2.571c-0.298-0.32-0.276-0.818,0.045-1.113l12.551-11.506
				c0.02,0.028,0.038,0.058,0.063,0.082c0.209,0.228,0.563,0.239,0.791,0.032c0.228-0.209,0.239-0.561,0.029-0.786
				c-0.021-0.025-0.05-0.05-0.074-0.07l2.978-2.728c0.32-0.297,0.824-0.274,1.119,0.046l2.386,2.573
				c-0.019,0.017-0.038,0.031-0.056,0.047c-0.936,0.857-0.994,2.306-0.133,3.236c0.859,0.928,2.315,0.985,3.253,0.131
				c0.017-0.019,0.033-0.033,0.052-0.051l2.384,2.573c0.297,0.319,0.276,0.817-0.045,1.112L46.781,43.701z"/>
			<circle fill="#0261A3" cx="43.782" cy="41.264" r="0.558"/>
			<circle fill="#0261A3" cx="45.04" cy="42.622" r="0.558"/>
		</g>
		<g>
			<path fill="#0261A3" d="M149.375,30.004c0,2.043-1.612,3.646-3.71,3.646c-2.076,0-3.733-1.604-3.733-3.646
				c0-1.998,1.657-3.603,3.733-3.603C147.762,26.402,149.375,28.006,149.375,30.004z M142.86,30.004
				c0,1.604,1.193,2.879,2.826,2.879c1.591,0,2.762-1.274,2.762-2.856c0-1.603-1.171-2.897-2.781-2.897
				C144.053,27.127,142.86,28.424,142.86,30.004z M145.089,31.895h-0.839v-3.604c0.331-0.063,0.795-0.108,1.392-0.108
				c0.687,0,0.993,0.108,1.258,0.264c0.199,0.152,0.354,0.438,0.354,0.791c0,0.396-0.311,0.703-0.752,0.834v0.044
				c0.354,0.133,0.553,0.396,0.663,0.879c0.109,0.551,0.177,0.771,0.265,0.899h-0.905c-0.107-0.131-0.176-0.461-0.285-0.877
				c-0.066-0.396-0.286-0.572-0.753-0.572h-0.396L145.089,31.895L145.089,31.895z M145.112,29.852h0.398
				c0.463,0,0.839-0.153,0.839-0.526c0-0.33-0.243-0.55-0.771-0.55c-0.223,0-0.375,0.021-0.466,0.043V29.852L145.112,29.852z"/>
		</g>
	</g>
</g>
</svg>
